<svg xmlns="http://www.w3.org/2000/svg" viewBox="0 0 563.2 56.43"><defs><style>.cls-1{fill:#1d1d1b;}</style></defs><g id="Capa_2" data-name="Capa 2"><g id="Capa_1-2" data-name="Capa 1"><ellipse class="cls-1" cx="397.38" cy="28.13" rx="3.27" ry="3.39"/><polygon class="cls-1" points="356.15 25.8 354.9 29.93 358.54 29.93 357.28 25.8 356.15 25.8"/><ellipse class="cls-1" cx="446.46" cy="28.13" rx="3.27" ry="3.39"/><path class="cls-1" d="M318.15,25.08H315v2.68h3.16c1,0,1.48-.54,1.48-1.34S319.18,25.08,318.15,25.08Z"/><ellipse class="cls-1" cx="296.1" cy="28.13" rx="3.27" ry="3.39"/><path class="cls-1" d="M275.79,25.08h-3v2.86h2.91a1.39,1.39,0,0,0,1.59-1.44A1.37,1.37,0,0,0,275.79,25.08Z"/><path class="cls-1" d="M492.84,24.69c-1.82,0-2.5,1.42-2.5,3.44s.68,3.41,2.5,3.41,2.49-1.42,2.49-3.41S494.67,24.69,492.84,24.69Z"/><path class="cls-1" d="M535.68,0H27.52A27.56,27.56,0,0,0,0,27.53a28.94,28.94,0,0,0,28.9,28.9H220.76c.54,0,1.08,0,1.62,0s1.08,0,1.62,0H534.3a28.94,28.94,0,0,0,28.9-28.9A27.56,27.56,0,0,0,535.68,0ZM220.76,54.93H28.9A27.43,27.43,0,0,1,1.5,27.53a26,26,0,0,1,26-26H222.14a26,26,0,0,1,26,26A27.43,27.43,0,0,1,220.76,54.93Zm55.67-21.4h-3.59v3.23h-6.77V19.49h10.32c4.79,0,7.77,2,7.77,7S281.18,33.53,276.43,33.53Zm19.67,3.8c-6.14,0-10-3.61-10-9.2s3.85-9.21,10-9.21,10,3.6,10,9.21S302.23,37.33,296.1,37.33Zm24.38-.57-2-4H315v4h-6.76V19.49h10.44c4.89,0,7.75,2,7.75,6.87a6,6,0,0,1-2.24,4.87l2.91,5.53Zm21.08,0h-6.74V25.1h-6V19.49H347.6V25.1h-6Zm19,0L360,34.89H353.4l-.58,1.87h-7L352,19.49h9.46l6.12,17.27Zm25-11.66h-9.44v1.2h9.09v4.79h-9.09v5.67h-6.76V19.49h16.2Zm11.77,12.23c-6.14,0-10-3.61-10-9.2s3.85-9.21,10-9.21,10,3.6,10,9.21S403.51,37.33,397.38,37.33Zm27.6-.57H409.51V19.49h6.76V31.13H425Zm9.33,0h-6.76V19.49h6.76Zm12.15.57c-6.15,0-10-3.61-10-9.2s3.84-9.21,10-9.21,10,3.6,10,9.21S452.58,37.33,446.46,37.33Zm35.25-5.65v5.08H465.06v-2.9c0-7.21,10.07-6.54,10.07-8.63,0-.52-.31-.87-1.42-.87-.41,0-2-.1-1.91,1.46h-6.58c0-4.48,2.72-6.78,8.2-6.78,5.14,0,8.31,1.85,8.31,5.84,0,5.53-6.13,5.14-8.31,6.8Zm11.13,5.53c-5.94,0-9.16-3.33-9.16-9.08S486.9,19,492.84,19,502,22.35,502,28.13,498.78,37.21,492.84,37.21Zm27.75-5.53v5.08H503.94v-2.9c0-7.21,10.07-6.54,10.07-8.63,0-.52-.31-.87-1.42-.87-.41,0-2-.1-1.91,1.46h-6.57c0-4.48,2.71-6.78,8.2-6.78,5.14,0,8.3,1.85,8.3,5.84,0,5.53-6.12,5.14-8.3,6.8Zm10.54,5.53c-5.73,0-8.51-1.79-8.46-6.58h6c.1,1.14.94,1.3,2.28,1.3,1.6,0,2.32-.33,2.32-.86,0,0,.27-1.16-2.14-1.16H530V26.24h1.15c2.37,0,2.26-.85,2.26-1,0-.74-.94-.95-2.15-.95s-2.22.25-2.2,1.36h-6C523,21,525.91,19,531.32,19s8.18,1.91,8.18,5a3.74,3.74,0,0,1-2.26,3.55v.31A4,4,0,0,1,540,32C540,35.3,536.7,37.21,531.13,37.21Z"/><path class="cls-1" d="M30,24.73a2.82,2.82,0,0,1,3.08,2.49h6.41c-.39-6.35-5-8.3-9.49-8.3-6,0-9.87,3.6-9.87,9.21S24,37.33,30,37.33c4.54,0,9.1-2,9.49-8.36H33.06A2.83,2.83,0,0,1,30,31.52a3.13,3.13,0,0,1-3.15-3.39A3.13,3.13,0,0,1,30,24.73Z"/><polygon class="cls-1" points="41.63 36.76 57.87 36.76 57.87 31.39 48.39 31.39 48.39 30.26 57.5 30.26 57.5 26.01 48.39 26.01 48.39 24.86 57.87 24.86 57.87 19.49 41.63 19.49 41.63 36.76"/><polygon class="cls-1" points="53.98 14.71 48.04 14.71 46.54 18.47 52.48 18.47 53.98 14.71"/><path class="cls-1" d="M69.62,26.07l-1.81-.29c-1-.12-1-.68-1-.8,0-.41.47-.84,2.07-.84,1.89,0,2.7.51,2.86,1.38h6c.19-5.37-3.47-6.6-8.73-6.6-5.92,0-8.72,2.2-8.72,5.71,0,4.85,4.38,4.94,7.65,5.43l2.28.35c1.44.16,1.29.74,1.29.86,0,.43-.69.86-2.54.82-2.22,0-3-.53-3-1.39H60c-.22,4.76,2.61,6.61,9.05,6.63,6.26.05,9.26-1.78,9.26-5.77C78.29,26.44,73.14,26.65,69.62,26.07Z"/><path class="cls-1" d="M85.2,19.49,79.08,36.76h7l.58-1.87h6.64l.55,1.87h7L94.65,19.49Zm2.92,10.45,1.25-4.14H90.5l1.26,4.14Z"/><path class="cls-1" d="M120.82,26.36c0-4.89-2.86-6.87-7.75-6.87H102.63V36.76h6.76v-4h3.47l2,4h6.62l-2.92-5.53A6,6,0,0,0,120.82,26.36Zm-8.26,1.4h-3.17V25.08h3.17c1,0,1.48.54,1.48,1.34S113.58,27.76,112.56,27.76Z"/><polygon class="cls-1" points="137.13 19.49 130.37 19.49 130.37 36.76 145.85 36.76 145.85 31.13 137.13 31.13 137.13 19.49"/><polygon class="cls-1" points="148.42 36.76 164.66 36.76 164.66 31.39 155.18 31.39 155.18 30.26 164.28 30.26 164.28 26.01 155.18 26.01 155.18 24.86 164.66 24.86 164.66 19.49 148.42 19.49 148.42 36.76"/><polygon class="cls-1" points="177.03 25.17 176.55 25.17 173.47 19.49 166.4 19.49 173.41 31.46 173.41 36.76 180.15 36.76 180.15 31.52 187.18 19.49 180.13 19.49 177.03 25.17"/><polygon class="cls-1" points="188.62 25.11 194.66 25.11 194.66 36.76 201.4 36.76 201.4 25.11 207.44 25.11 207.44 19.49 188.62 19.49 188.62 25.11"/><path class="cls-1" d="M218.81,18.92c-6.15,0-10,3.6-10,9.21s3.84,9.2,10,9.2,10-3.61,10-9.2S224.93,18.92,218.81,18.92Zm0,12.6a3.14,3.14,0,0,1-3.27-3.39,3.27,3.27,0,1,1,6.54,0A3.15,3.15,0,0,1,218.81,31.52Z"/></g></g></svg>